{"glyphs":{"0":{"ha":576,"x_min":57,"x_max":521,"o":"m 521 326 q 461 84 521 176 q 289 -14 398 -14 q 117 84 180 -14 q 57 326 57 176 q 117 553 57 463 q 289 652 181 652 q 461 553 397 652 q 521 326 521 463 m 371 325 q 350 453 371 402 q 289 507 327 507 q 228 453 251 507 q 207 325 207 402 q 289 134 207 134 q 371 325 371 134 z "},"1":{"ha":576,"x_min":161,"x_max":408,"o":"m 408 0 l 268 0 l 268 390 l 216 359 q 161 336 185 341 l 161 482 q 294 633 256 538 l 408 633 l 408 0 z "},"2":{"ha":576,"x_min":60,"x_max":530,"o":"m 530 147 l 465 0 l 60 0 l 60 8 l 281 297 q 328 412 328 359 q 288 492 328 464 q 193 519 252 519 q 103 500 155 519 l 103 636 q 232 652 166 652 q 413 594 343 652 q 482 446 482 536 q 428 283 482 363 l 335 147 l 530 147 z "},"3":{"ha":576,"x_min":85,"x_max":517,"o":"m 517 200 q 440 45 517 105 q 257 -14 366 -14 q 85 26 161 -14 l 126 155 q 262 125 218 125 q 334 144 305 125 q 366 199 366 164 q 330 261 366 238 q 253 282 298 282 q 214 279 227 282 l 214 379 q 338 454 338 379 q 307 503 338 484 q 241 519 279 519 q 134 489 185 520 l 134 625 q 272 652 197 652 q 415 612 356 652 q 488 478 488 566 q 418 355 488 391 q 490 293 463 336 q 517 200 517 250 z "},"4":{"ha":576,"x_min":64,"x_max":534,"o":"m 534 214 l 485 93 l 463 93 l 463 0 l 326 0 l 326 93 l 64 93 l 64 203 l 326 633 l 463 633 l 463 214 l 534 214 m 326 214 l 326 407 l 201 214 l 326 214 z "},"5":{"ha":576,"x_min":103,"x_max":504,"o":"m 504 633 l 475 521 l 304 521 l 279 433 q 436 380 378 433 q 493 232 493 328 q 408 46 493 114 q 222 -14 332 -14 q 103 7 173 -14 l 103 144 q 204 123 151 123 q 342 225 342 123 q 192 326 342 315 q 150 325 175 328 q 110 322 120 322 l 191 633 l 504 633 z "},"6":{"ha":576,"x_min":58,"x_max":521,"o":"m 521 228 q 452 49 521 116 q 288 -14 387 -14 q 125 50 190 -14 q 58 227 58 117 q 86 345 58 288 q 172 471 111 395 l 304 633 l 481 633 l 318 433 q 456 376 403 422 q 521 228 521 321 m 372 216 q 348 274 372 250 q 290 298 323 298 q 233 274 257 298 q 208 216 208 250 q 233 159 208 183 q 290 135 257 135 q 348 159 323 135 q 372 216 372 183 z "},"7":{"ha":576,"x_min":97,"x_max":530,"o":"m 530 633 l 268 0 l 113 0 l 323 514 l 97 514 l 149 633 l 530 633 z "},"8":{"ha":576,"x_min":54,"x_max":510,"o":"m 510 200 q 444 46 510 106 q 282 -14 378 -14 q 120 47 186 -14 q 54 200 54 107 q 125 347 54 288 q 74 457 74 389 q 134 597 74 542 q 282 652 194 652 q 430 597 370 652 q 490 457 490 542 q 439 347 490 382 q 510 200 510 290 m 349 453 q 329 500 349 480 q 282 519 309 519 q 235 500 255 519 q 215 453 215 480 q 235 406 215 426 q 282 386 255 386 q 329 406 309 386 q 349 453 349 426 m 363 199 q 338 255 363 231 q 282 279 314 279 q 225 255 250 279 q 201 199 201 231 q 225 142 201 166 q 282 118 250 118 q 338 142 314 118 q 363 199 363 166 z "},"9":{"ha":576,"x_min":56,"x_max":518,"o":"m 518 404 q 490 286 518 342 q 404 160 466 236 l 272 -3 l 96 -3 l 258 197 q 120 254 174 208 q 56 403 56 309 q 124 581 56 515 q 289 644 189 644 q 451 581 387 644 q 518 404 518 513 m 368 414 q 344 471 368 447 q 286 496 319 496 q 229 471 253 496 q 204 414 204 447 q 229 356 204 380 q 286 332 253 332 q 344 356 319 332 q 368 414 368 380 z "}," ":{"ha":385,"x_min":0,"x_max":0,"o":""},"!":{"ha":346,"x_min":81,"x_max":245,"o":"m 233 193 l 87 193 l 87 659 l 233 659 l 233 193 m 245 81 q 221 23 245 47 q 163 -1 197 -1 q 105 23 129 -1 q 81 81 81 47 q 104 141 81 116 q 163 167 128 167 q 221 141 197 167 q 245 81 245 116 z "},"\"":{"ha":538,"x_min":52,"x_max":489,"o":"m 489 724 l 382 472 l 278 472 l 349 724 l 489 724 m 262 724 l 153 472 l 52 472 l 119 724 l 262 724 z "},"#":{"ha":576,"x_min":0,"x_max":566,"o":"m 566 458 l 440 458 l 421 314 l 538 314 l 538 243 l 412 243 l 376 0 l 306 0 l 340 243 l 187 243 l 153 0 l 81 0 l 117 243 l 0 243 l 0 314 l 135 314 l 153 458 l 28 458 l 28 529 l 161 529 l 197 753 l 269 753 l 233 529 l 376 529 l 412 753 l 484 753 l 449 529 l 566 529 l 566 458 m 368 458 l 225 458 l 205 314 l 350 314 l 368 458 z "},"$":{"ha":576,"x_min":61,"x_max":518,"o":"m 518 210 q 459 49 518 110 q 323 -11 405 -7 l 323 -79 l 258 -79 l 258 -11 q 118 37 171 -11 q 61 186 61 90 l 201 186 q 258 110 201 127 l 258 271 q 74 465 74 310 q 127 594 74 540 q 258 653 181 648 l 258 717 l 323 717 l 323 653 q 449 603 399 650 q 498 482 498 556 l 363 482 q 323 536 359 517 l 323 392 q 456 330 401 376 q 518 210 518 278 m 258 410 l 258 533 q 211 464 211 513 q 258 410 211 416 m 375 187 q 323 258 375 245 l 323 109 q 375 187 375 131 z "},"%":{"ha":884,"x_min":69,"x_max":819,"o":"m 819 183 q 777 46 819 100 q 663 -8 734 -8 q 548 46 591 -8 q 505 183 505 100 q 547 313 505 260 q 663 368 592 368 q 777 313 733 368 q 819 183 819 260 m 657 636 l 304 0 l 229 0 l 583 636 l 657 636 m 383 461 q 341 324 383 377 q 227 269 298 269 q 111 324 155 269 q 69 461 69 377 q 111 591 69 538 q 227 646 156 646 q 341 591 297 646 q 383 461 383 538 m 722 182 q 706 253 722 224 q 663 282 690 282 q 619 253 635 282 q 603 182 603 224 q 619 107 603 137 q 663 78 635 78 q 706 107 690 78 q 722 182 722 137 m 286 460 q 270 531 286 502 q 227 559 254 559 q 183 531 199 559 q 167 460 167 502 q 182 386 167 414 q 227 355 199 355 q 271 386 254 355 q 286 460 286 414 z "},"&":{"ha":889,"x_min":75,"x_max":827,"o":"m 827 150 l 744 -22 q 621 67 669 22 q 372 -24 519 -24 q 166 37 248 -24 q 75 223 75 103 q 256 462 75 366 q 191 545 201 526 q 165 646 165 589 q 241 788 165 731 q 415 842 315 842 q 593 791 522 842 q 668 648 668 737 q 505 441 668 532 l 610 335 q 642 420 635 382 l 804 368 q 736 212 782 281 q 827 150 770 183 m 492 636 q 470 687 492 667 q 420 707 448 707 q 374 694 394 707 q 350 646 350 677 q 374 585 350 610 l 414 541 l 458 570 q 492 636 492 593 m 505 196 l 344 355 q 272 232 272 314 q 303 169 272 198 q 365 140 334 140 q 505 196 447 140 z "},"'":{"ha":307,"x_min":41,"x_max":250,"o":"m 250 721 l 142 475 l 41 475 l 110 721 l 250 721 z "},"(":{"ha":424,"x_min":77,"x_max":342,"o":"m 342 -123 q 325 -124 336 -123 q 310 -125 315 -125 q 118 -45 177 -125 q 77 97 77 11 l 77 542 q 118 684 77 629 q 310 764 177 764 q 325 763 315 764 q 342 762 336 762 l 342 643 q 243 620 273 643 q 214 542 214 597 l 214 97 q 243 19 214 42 q 342 -4 273 -4 l 342 -123 z "},")":{"ha":424,"x_min":82,"x_max":347,"o":"m 347 97 q 306 -45 347 11 q 114 -125 247 -125 q 98 -124 109 -125 q 82 -123 87 -123 l 82 -4 q 180 19 151 -4 q 210 97 210 42 l 210 542 q 180 620 210 597 q 82 643 151 643 l 82 762 q 98 763 87 762 q 114 764 109 764 q 306 684 247 764 q 347 542 347 629 l 347 97 z "},"*":{"ha":424,"x_min":52,"x_max":382,"o":"m 382 539 q 339 456 377 501 l 253 510 l 265 410 q 216 404 245 404 q 171 410 199 404 l 178 511 l 97 453 q 54 536 67 475 l 142 570 l 52 608 q 97 688 61 652 l 178 639 l 165 733 q 215 742 185 742 q 262 736 232 742 l 256 639 l 330 692 q 378 612 374 667 l 292 575 l 382 539 z "},"+":{"ha":847,"x_min":113,"x_max":760,"o":"m 760 261 l 478 261 l 478 -33 l 395 -33 l 395 261 l 113 261 l 113 345 l 395 345 l 395 639 l 478 639 l 478 345 l 760 345 l 760 261 z "},",":{"ha":307,"x_min":52,"x_max":253,"o":"m 253 132 l 161 -87 l 52 -87 l 110 132 l 253 132 z "},"-":{"ha":424,"x_min":61,"x_max":358,"o":"m 358 244 l 61 244 l 61 389 l 358 389 l 358 244 z "},".":{"ha":307,"x_min":78,"x_max":243,"o":"m 243 71 q 219 13 243 37 q 161 -11 195 -11 q 102 13 126 -11 q 78 71 78 37 q 102 128 78 104 q 161 151 126 151 q 219 128 195 151 q 243 71 243 104 z "},"/":{"ha":463,"x_min":52,"x_max":421,"o":"m 421 639 l 136 -1 l 52 -1 l 340 639 l 421 639 z "},":":{"ha":385,"x_min":60,"x_max":227,"o":"m 227 416 q 202 359 227 382 q 143 335 178 335 q 84 359 109 335 q 60 416 60 382 q 84 475 60 451 q 143 500 109 500 q 202 475 178 500 q 227 416 227 451 m 227 68 q 202 10 227 34 q 143 -14 178 -14 q 84 10 109 -14 q 60 68 60 34 q 84 127 60 102 q 143 151 109 151 q 202 127 178 151 q 227 68 227 102 z "},";":{"ha":385,"x_min":46,"x_max":243,"o":"m 243 416 q 218 359 243 382 q 160 335 194 335 q 101 359 125 335 q 77 416 77 382 q 101 475 77 451 q 160 500 125 500 q 218 475 194 500 q 243 416 243 451 m 243 132 l 151 -92 l 46 -92 l 104 132 l 243 132 z "},"<":{"ha":833,"x_min":117,"x_max":717,"o":"m 717 -28 l 117 258 l 117 367 l 717 653 l 717 542 l 227 310 l 717 83 l 717 -28 z "},"=":{"ha":847,"x_min":113,"x_max":760,"o":"m 760 351 l 113 351 l 113 435 l 760 435 l 760 351 m 760 171 l 113 171 l 113 254 l 760 254 l 760 171 z "},">":{"ha":833,"x_min":117,"x_max":717,"o":"m 717 258 l 117 -28 l 117 83 l 607 310 l 117 542 l 117 653 l 717 367 l 717 258 z "},"?":{"ha":654,"x_min":57,"x_max":532,"o":"m 532 422 q 469 257 532 316 q 372 212 421 212 l 372 176 l 236 176 l 236 342 q 293 326 273 326 q 360 354 333 326 q 387 421 387 382 q 359 489 387 460 q 293 517 330 517 q 231 491 260 517 q 197 432 201 465 l 57 450 q 134 591 75 536 q 293 652 199 652 q 465 587 399 652 q 532 422 532 522 m 385 65 q 361 9 385 32 q 304 -14 338 -14 q 247 9 271 -14 q 224 65 224 32 q 247 122 224 98 q 304 146 271 146 q 361 122 338 146 q 385 65 385 98 z "},"@":{"ha":956,"x_min":-13,"x_max":968,"o":"m 968 526 q 936 371 968 446 q 843 244 902 290 q 700 191 775 191 q 625 215 657 191 q 594 251 611 225 q 448 189 532 189 q 298 250 360 189 q 224 443 224 323 q 318 654 224 578 q 475 707 385 707 q 601 667 535 707 l 609 696 l 737 696 l 700 391 q 696 329 696 363 q 712 302 696 302 q 739 309 724 302 q 824 396 792 330 q 852 517 852 454 q 772 730 852 642 q 493 842 669 842 q 246 752 352 842 q 115 460 115 640 q 266 156 115 266 q 508 86 362 86 q 726 129 629 86 l 770 149 l 791 159 q 800 163 793 160 l 844 51 l 837 47 q 827 42 833 45 l 820 39 l 787 24 q 510 -34 662 -34 q 189 60 319 -34 q 40 235 94 128 q -13 460 -13 341 q 115 791 -13 654 q 496 954 265 954 q 857 805 718 954 q 968 526 968 687 m 587 471 q 555 549 587 519 q 473 578 522 578 q 401 548 433 578 q 360 436 360 509 q 382 357 360 389 q 452 319 408 319 q 549 368 509 319 q 587 471 587 413 z "},"A":{"ha":986,"x_min":9,"x_max":977,"o":"m 977 0 l 720 0 l 660 161 l 328 161 l 264 0 l 9 0 l 366 926 l 628 926 l 977 0 m 595 345 l 495 640 l 394 345 l 595 345 z "},"B":{"ha":859,"x_min":97,"x_max":802,"o":"m 802 263 q 743 94 802 159 q 483 0 658 0 l 97 0 l 97 926 l 455 926 q 715 684 715 926 q 687 563 715 612 q 614 492 663 522 q 766 404 725 469 q 802 263 802 343 m 493 652 q 436 736 493 715 q 382 743 416 743 l 338 743 l 338 562 l 382 562 q 471 592 444 562 q 493 652 493 616 m 562 279 q 478 374 562 360 q 387 378 452 378 l 338 378 l 338 183 l 391 183 q 520 205 484 183 q 562 279 562 229 z "},"C":{"ha":819,"x_min":56,"x_max":764,"o":"m 764 22 q 545 -25 646 -25 q 232 87 370 -25 q 56 460 56 230 q 232 833 56 690 q 547 945 370 945 q 764 899 644 945 l 764 610 q 694 673 730 652 q 556 711 630 711 q 393 655 463 711 q 306 460 306 584 q 393 265 306 336 q 556 209 463 209 q 694 248 630 209 q 764 310 729 268 l 764 22 z "},"D":{"ha":965,"x_min":97,"x_max":909,"o":"m 909 463 q 822 196 909 319 q 599 25 734 73 q 452 0 527 0 l 97 0 l 97 926 l 452 926 q 694 853 583 926 q 861 665 803 783 q 909 463 909 567 m 659 463 q 605 630 659 559 q 393 724 534 724 l 338 724 l 338 201 l 393 201 q 605 296 534 201 q 659 463 659 368 z "},"E":{"ha":680,"x_min":97,"x_max":624,"o":"m 624 0 l 97 0 l 97 926 l 624 926 l 624 724 l 338 724 l 338 568 l 608 568 l 608 366 l 338 366 l 338 201 l 624 201 l 624 0 z "},"F":{"ha":674,"x_min":97,"x_max":627,"o":"m 627 724 l 338 724 l 338 568 l 602 568 l 602 366 l 338 366 l 338 0 l 97 0 l 97 926 l 627 926 l 627 724 z "},"G":{"ha":1080,"x_min":55,"x_max":1025,"o":"m 1025 514 q 991 269 1025 363 q 821 46 939 124 q 549 -28 706 -28 q 158 145 294 -28 q 55 459 55 277 q 176 799 55 661 q 558 956 313 956 q 836 871 722 956 q 975 695 918 812 l 747 601 q 679 699 718 666 q 547 745 623 745 q 328 583 390 745 q 305 459 305 523 q 389 239 305 327 q 553 173 450 173 q 699 227 645 173 q 745 331 734 262 l 547 331 l 547 514 l 1025 514 z "},"H":{"ha":1023,"x_min":97,"x_max":926,"o":"m 926 0 l 685 0 l 685 385 l 338 385 l 338 0 l 97 0 l 97 926 l 338 926 l 338 568 l 685 568 l 685 926 l 926 926 l 926 0 z "},"I":{"ha":435,"x_min":97,"x_max":338,"o":"m 338 0 l 97 0 l 97 926 l 338 926 l 338 0 z "},"J":{"ha":650,"x_min":9,"x_max":553,"o":"m 553 286 q 547 193 553 229 q 465 55 532 117 q 251 -25 377 -25 q 9 112 102 -25 l 167 273 q 245 182 178 182 q 313 290 315 182 l 313 340 l 313 926 l 553 926 l 553 286 z "},"K":{"ha":972,"x_min":97,"x_max":962,"o":"m 962 0 l 650 0 l 338 401 l 338 0 l 97 0 l 97 926 l 338 926 l 338 544 l 631 926 l 928 926 l 561 488 l 962 0 z "},"L":{"ha":653,"x_min":97,"x_max":627,"o":"m 627 0 l 97 0 l 97 926 l 338 926 l 338 201 l 627 201 l 627 0 z "},"M":{"ha":1272,"x_min":56,"x_max":1216,"o":"m 1216 0 l 975 0 l 907 533 l 683 0 l 587 0 l 374 533 l 295 0 l 56 0 l 213 926 l 450 926 l 638 432 l 837 926 l 1076 926 l 1216 0 z "},"N":{"ha":1118,"x_min":97,"x_max":1021,"o":"m 1021 0 l 781 0 l 338 567 l 338 0 l 97 0 l 97 926 l 338 926 l 781 359 l 781 926 l 1021 926 l 1021 0 z "},"O":{"ha":1136,"x_min":56,"x_max":1080,"o":"m 1080 460 q 955 129 1080 271 q 568 -33 812 -33 q 181 129 324 -33 q 56 460 56 271 q 90 636 56 546 q 180 791 123 727 q 568 954 323 954 q 955 791 812 954 q 1080 460 1080 649 m 830 460 q 768 629 830 557 q 568 720 688 720 q 418 673 485 720 q 322 549 351 627 q 306 460 306 505 q 368 292 306 366 q 568 201 446 201 q 768 292 690 201 q 830 460 830 364 z "},"P":{"ha":832,"x_min":97,"x_max":802,"o":"m 802 621 q 743 413 802 495 q 488 307 666 307 l 338 307 l 338 0 l 97 0 l 97 926 l 480 926 q 728 830 644 926 q 802 621 802 748 m 551 618 q 521 700 551 669 q 418 731 491 731 l 338 731 l 338 501 l 418 501 q 525 535 496 501 q 551 618 551 566 z "},"Q":{"ha":1136,"x_min":56,"x_max":1116,"o":"m 1116 -26 l 895 -60 l 822 26 q 568 -33 703 -33 q 181 129 325 -33 q 56 460 56 271 q 181 791 56 650 q 568 954 325 954 q 956 791 812 954 q 1081 460 1081 649 q 959 133 1081 278 l 1116 -26 m 831 460 q 768 629 831 555 q 568 720 690 720 q 369 628 447 720 q 306 460 306 554 q 368 292 306 366 q 568 201 446 201 q 643 211 602 201 l 494 360 l 721 388 l 787 318 q 831 460 831 385 z "},"R":{"ha":871,"x_min":97,"x_max":867,"o":"m 867 0 l 567 0 l 338 355 l 338 0 l 97 0 l 97 926 l 471 926 q 714 827 635 926 q 778 641 778 748 q 705 445 778 518 q 576 380 658 398 l 867 0 m 528 627 q 492 711 528 677 q 382 743 458 743 l 338 743 l 338 511 l 382 511 q 492 543 458 511 q 528 627 528 578 z "},"S":{"ha":793,"x_min":56,"x_max":739,"o":"m 739 307 q 532 1 739 72 q 378 -24 460 -24 q 56 81 204 -24 l 159 275 q 371 177 267 177 q 450 199 418 177 q 488 268 488 223 q 446 336 488 309 q 341 377 415 356 q 229 414 252 404 q 166 450 192 429 q 92 635 92 511 q 169 848 92 764 q 408 948 258 948 q 701 873 557 948 l 605 686 q 446 747 526 747 q 377 727 408 747 q 342 667 342 705 q 388 604 342 631 q 510 562 408 592 q 692 456 637 525 q 739 307 739 398 z "},"T":{"ha":654,"x_min":9,"x_max":646,"o":"m 646 724 l 446 724 l 446 0 l 205 0 l 205 724 l 9 724 l 9 926 l 646 926 l 646 724 z "},"U":{"ha":1002,"x_min":97,"x_max":905,"o":"m 905 392 q 891 250 905 309 q 791 83 870 158 q 490 -24 678 -24 q 190 85 298 -24 q 112 228 133 142 q 97 392 97 289 l 97 926 l 338 926 l 338 425 q 340 334 338 364 q 426 203 347 240 q 498 187 458 187 q 631 249 586 187 q 664 425 664 294 l 664 926 l 905 926 l 905 392 z "},"V":{"ha":971,"x_min":0,"x_max":971,"o":"m 971 926 l 576 0 l 389 0 l 0 926 l 262 926 l 485 363 l 710 926 l 971 926 z "},"W":{"ha":1408,"x_min":0,"x_max":1408,"o":"m 1408 926 l 1112 0 l 867 0 l 698 536 l 521 0 l 276 0 l 0 926 l 252 926 l 412 328 l 608 926 l 800 926 l 982 328 l 1157 926 l 1408 926 z "},"X":{"ha":987,"x_min":0,"x_max":987,"o":"m 987 0 l 696 0 l 498 301 l 291 0 l 0 0 l 362 494 l 66 926 l 362 926 l 500 686 l 644 926 l 939 926 l 637 494 l 987 0 z "},"Y":{"ha":889,"x_min":-17,"x_max":905,"o":"m 905 926 l 559 445 l 559 0 l 318 0 l 318 445 l -17 926 l 271 926 l 446 673 l 614 926 l 905 926 z "},"Z":{"ha":877,"x_min":18,"x_max":858,"o":"m 858 926 l 422 201 l 810 201 l 810 0 l 18 0 l 456 724 l 92 724 l 92 926 l 858 926 z "},"[":{"ha":424,"x_min":78,"x_max":307,"o":"m 307 -139 l 78 -139 l 78 747 l 307 747 l 307 628 l 204 628 l 204 -12 l 307 -12 l 307 -139 z "},"\\":{"ha":383,"x_min":0,"x_max":367,"o":"m 367 0 l 268 0 l 0 810 l 109 810 l 367 0 z "},"]":{"ha":424,"x_min":111,"x_max":340,"o":"m 340 -139 l 111 -139 l 111 -12 l 214 -12 l 214 628 l 111 628 l 111 747 l 340 747 l 340 -139 z "},"^":{"ha":534,"x_min":18,"x_max":521,"o":"m 521 296 l 440 296 l 269 681 l 98 296 l 18 296 l 233 771 l 306 771 l 521 296 z "},"_":{"ha":700,"x_min":0,"x_max":714,"o":"m 714 -175 l 0 -175 l 0 -98 l 714 -98 l 714 -175 z "},"`":{"ha":694,"x_min":134,"x_max":450,"o":"m 450 798 l 347 722 l 134 911 l 275 1013 l 450 798 z "},"a":{"ha":861,"x_min":51,"x_max":785,"o":"m 785 0 l 563 0 l 563 70 q 498 12 531 30 q 369 -20 441 -20 q 160 60 252 -20 q 51 315 51 157 q 163 573 51 477 q 367 650 252 650 q 493 621 434 650 q 563 568 527 605 l 563 629 l 785 629 l 785 0 m 570 315 q 528 416 570 374 q 426 458 486 458 q 317 408 359 458 q 282 315 282 367 q 317 222 282 262 q 426 172 359 172 q 528 213 486 172 q 570 315 570 254 z "},"b":{"ha":861,"x_min":76,"x_max":810,"o":"m 810 315 q 701 60 810 157 q 492 -20 610 -20 q 363 12 420 -20 q 298 70 328 31 l 298 0 l 76 0 l 76 1019 l 298 1019 l 298 568 q 368 621 334 605 q 494 650 427 650 q 699 573 610 650 q 810 315 810 477 m 579 315 q 545 408 579 367 q 435 458 502 458 q 334 416 376 458 q 292 315 292 374 q 334 213 292 255 q 435 172 376 172 q 545 222 503 172 q 579 315 579 263 z "},"c":{"ha":602,"x_min":51,"x_max":551,"o":"m 551 14 q 406 -21 481 -21 q 132 96 233 -21 q 51 314 51 190 q 132 532 51 439 q 406 649 233 649 q 551 614 483 649 l 551 425 q 435 466 492 466 q 326 423 369 466 q 282 314 282 380 q 326 205 282 248 q 435 162 369 162 q 551 203 491 162 l 551 14 z "},"d":{"ha":861,"x_min":51,"x_max":785,"o":"m 785 0 l 563 0 l 563 70 q 498 12 531 30 q 369 -20 441 -20 q 160 60 252 -20 q 51 315 51 157 q 163 573 51 477 q 367 650 252 650 q 493 621 434 650 q 563 568 527 605 l 563 1019 l 785 1019 l 785 0 m 570 315 q 528 416 570 374 q 426 458 486 458 q 317 408 359 458 q 282 315 282 367 q 317 222 282 262 q 426 172 359 172 q 528 213 486 172 q 570 315 570 254 z "},"e":{"ha":795,"x_min":51,"x_max":744,"o":"m 744 274 l 276 274 q 413 132 276 132 q 520 192 483 132 l 735 192 q 659 60 709 106 q 416 -25 568 -25 q 124 93 222 -25 q 51 308 51 181 q 142 553 51 458 q 401 647 234 647 q 694 498 606 647 q 744 302 744 414 l 744 274 m 536 401 q 410 506 513 506 q 317 473 353 506 q 282 401 290 446 l 536 401 z "},"f":{"ha":480,"x_min":15,"x_max":473,"o":"m 473 446 l 317 446 l 317 0 l 94 0 l 94 446 l 15 446 l 15 629 l 94 629 l 94 713 q 165 927 94 852 q 375 1021 252 1021 q 473 998 424 1021 l 473 804 q 395 829 428 829 q 329 794 350 829 q 317 697 317 774 l 317 629 l 473 629 l 473 446 z "},"g":{"ha":857,"x_min":51,"x_max":781,"o":"m 781 43 q 769 -90 781 -39 q 674 -236 751 -172 q 416 -317 577 -317 q 149 -229 248 -317 q 64 -105 82 -170 q 58 -77 62 -98 l 309 -77 q 338 -121 319 -108 q 414 -144 368 -144 q 532 -89 491 -144 q 558 10 558 -54 l 558 70 q 491 18 518 33 q 358 -13 435 -13 q 186 37 262 -13 q 74 176 108 87 q 51 305 51 235 q 149 557 51 460 q 370 647 241 647 q 492 619 438 647 q 558 564 524 602 l 558 629 l 781 629 l 781 43 m 569 317 q 528 420 569 377 q 426 464 486 464 q 316 412 359 464 q 282 317 282 371 q 324 213 282 256 q 426 170 366 170 q 527 213 486 170 q 569 317 569 256 z "},"h":{"ha":816,"x_min":76,"x_max":740,"o":"m 740 0 l 517 0 l 517 319 q 498 430 517 403 q 415 470 471 470 q 330 435 363 470 q 298 337 298 404 l 298 0 l 76 0 l 76 1019 l 298 1019 l 298 550 q 370 613 337 595 q 502 644 423 644 q 667 588 602 644 q 740 401 740 526 l 740 0 z "},"i":{"ha":374,"x_min":62,"x_max":312,"o":"m 312 871 q 276 782 312 819 q 186 746 239 746 q 98 783 134 746 q 62 871 62 819 q 98 960 62 924 q 186 996 134 996 q 275 960 239 996 q 312 871 312 924 m 298 0 l 75 0 l 75 629 l 298 629 l 298 0 z "},"j":{"ha":374,"x_min":62,"x_max":312,"o":"m 312 871 q 276 782 312 819 q 186 746 239 746 q 98 783 134 746 q 62 871 62 819 q 98 960 62 924 q 186 996 134 996 q 275 960 239 996 q 312 871 312 924 m 298 -315 l 75 -315 l 75 629 l 298 629 l 298 -315 z "},"k":{"ha":857,"x_min":76,"x_max":855,"o":"m 855 0 l 543 0 l 298 256 l 298 0 l 76 0 l 76 1019 l 298 1019 l 298 403 l 531 629 l 836 629 l 521 339 l 855 0 z "},"l":{"ha":374,"x_min":76,"x_max":298,"o":"m 298 0 l 76 0 l 76 1019 l 298 1019 l 298 0 z "},"m":{"ha":1217,"x_min":76,"x_max":1141,"o":"m 1141 0 l 918 0 l 918 311 q 901 422 918 393 q 826 467 876 467 q 741 418 770 467 q 720 311 720 385 l 720 0 l 497 0 l 497 311 q 484 417 497 393 q 400 466 456 466 q 319 424 348 466 q 303 383 308 409 q 298 311 298 357 l 298 0 l 76 0 l 76 629 l 298 629 l 298 552 q 370 608 338 590 q 502 640 429 640 q 656 591 595 640 q 716 522 688 567 q 774 589 742 564 q 927 640 841 640 q 1053 606 998 640 q 1130 505 1112 569 q 1141 409 1141 467 l 1141 0 z "},"n":{"ha":816,"x_min":76,"x_max":740,"o":"m 740 0 l 517 0 l 517 319 q 498 429 517 402 q 415 469 471 469 q 330 435 364 469 q 298 337 298 404 l 298 0 l 76 0 l 76 629 l 298 629 l 298 550 q 370 613 337 595 q 502 643 422 643 q 667 588 604 643 q 740 401 740 526 l 740 0 z "},"o":{"ha":859,"x_min":51,"x_max":808,"o":"m 808 315 q 722 90 808 184 q 430 -24 618 -24 q 137 90 241 -24 q 51 320 51 184 q 138 538 51 443 q 437 652 243 652 q 722 538 615 652 q 808 315 808 444 m 577 315 q 534 418 577 376 q 430 460 491 460 q 317 409 361 460 q 282 315 282 368 q 317 220 282 261 q 430 168 361 168 q 534 211 492 168 q 577 315 577 253 z "},"p":{"ha":861,"x_min":76,"x_max":810,"o":"m 810 314 q 699 56 810 153 q 494 -20 610 -20 q 368 8 427 -20 q 298 62 334 24 l 298 -315 l 76 -315 l 76 629 l 298 629 l 298 559 q 363 618 328 599 q 492 650 420 650 q 701 569 610 650 q 810 314 810 473 m 579 315 q 545 408 579 368 q 435 458 503 458 q 333 416 375 458 q 292 315 292 375 q 334 213 292 255 q 435 172 376 172 q 545 222 503 172 q 579 315 579 262 z "},"q":{"ha":861,"x_min":51,"x_max":785,"o":"m 785 -315 l 563 -315 l 563 62 q 493 8 527 24 q 367 -20 434 -20 q 163 56 252 -20 q 51 314 51 153 q 160 569 51 473 q 369 650 252 650 q 498 618 441 650 q 563 559 531 600 l 563 629 l 785 629 l 785 -315 m 570 315 q 528 416 570 375 q 426 458 486 458 q 317 408 359 458 q 282 315 282 367 q 317 222 282 262 q 426 172 359 172 q 528 213 486 172 q 570 315 570 255 z "},"r":{"ha":571,"x_min":76,"x_max":548,"o":"m 548 424 q 453 446 501 446 q 311 357 343 446 q 298 269 298 324 l 298 0 l 76 0 l 76 629 l 298 629 l 298 526 q 374 606 334 581 q 505 638 429 638 q 548 636 522 638 l 548 424 z "},"s":{"ha":625,"x_min":37,"x_max":588,"o":"m 588 212 q 516 48 588 112 q 289 -24 435 -24 q 37 49 159 -24 l 118 206 q 296 143 214 143 q 366 191 366 143 q 341 230 366 216 q 271 251 326 239 q 190 272 209 264 q 98 355 122 298 q 85 428 85 385 q 142 572 85 511 q 366 652 214 652 q 570 611 471 652 l 494 467 q 375 499 432 499 q 308 453 308 499 q 335 419 308 432 q 407 401 347 413 q 536 342 494 382 q 588 212 588 292 z "},"t":{"ha":458,"x_min":28,"x_max":451,"o":"m 451 446 l 324 446 l 324 0 l 102 0 l 102 446 l 28 446 l 28 629 l 102 629 l 102 819 l 324 819 l 324 629 l 451 629 l 451 446 z "},"u":{"ha":822,"x_min":76,"x_max":747,"o":"m 747 230 q 581 -3 747 54 q 412 -27 511 -27 q 130 69 216 -27 q 76 230 76 130 l 76 629 l 298 629 l 298 273 q 327 186 298 214 q 412 156 357 156 q 496 186 465 156 q 524 273 524 214 l 524 629 l 747 629 l 747 230 z "},"v":{"ha":801,"x_min":0,"x_max":801,"o":"m 801 629 l 473 0 l 325 0 l 0 629 l 250 629 l 401 307 l 552 629 l 801 629 z "},"w":{"ha":1259,"x_min":0,"x_max":1259,"o":"m 1259 629 l 930 0 l 781 0 l 624 345 l 473 0 l 323 0 l 0 629 l 248 629 l 399 298 l 557 629 l 696 629 l 854 288 l 1012 629 l 1259 629 z "},"x":{"ha":911,"x_min":0,"x_max":911,"o":"m 911 0 l 617 0 l 455 187 l 294 0 l 0 0 l 315 342 l 59 629 l 349 629 l 457 500 l 568 629 l 857 629 l 596 342 l 911 0 z "},"y":{"ha":845,"x_min":0,"x_max":845,"o":"m 845 629 l 340 -315 l 90 -315 l 304 86 l 0 629 l 258 629 l 427 307 l 590 629 l 845 629 z "},"z":{"ha":724,"x_min":28,"x_max":696,"o":"m 696 629 l 401 183 l 666 183 l 666 0 l 28 0 l 325 446 l 68 446 l 68 629 l 696 629 z "},"{":{"ha":667,"x_min":153,"x_max":471,"o":"m 471 -204 q 424 -208 446 -208 q 289 -145 328 -208 q 258 4 259 -97 q 260 85 258 32 q 262 167 262 142 q 247 296 262 253 q 153 375 222 364 q 247 454 222 386 q 262 583 262 497 q 260 665 262 608 q 258 746 258 718 q 289 895 259 847 q 424 958 328 958 q 471 954 446 958 q 353 749 354 924 q 356 655 353 717 q 359 562 359 591 q 340 437 359 479 q 252 375 315 384 q 340 313 315 366 q 359 187 359 271 q 356 96 359 159 q 353 1 353 33 q 471 -204 354 -174 z "},"|":{"ha":175,"x_min":45,"x_max":132,"o":"m 132 0 l 45 0 l 45 810 l 132 810 l 132 0 z "},"}":{"ha":667,"x_min":196,"x_max":514,"o":"m 514 375 q 420 296 445 364 q 404 167 404 253 q 406 85 404 142 q 408 4 408 32 q 378 -145 408 -97 q 243 -208 339 -208 q 196 -204 221 -208 q 314 1 313 -174 q 311 96 314 33 q 307 187 307 159 q 326 313 307 271 q 415 375 351 366 q 326 437 351 384 q 307 562 307 479 q 311 655 307 591 q 314 749 314 717 q 196 954 313 924 q 243 958 221 958 q 378 895 339 958 q 408 746 408 847 q 406 665 408 718 q 404 583 404 608 q 420 454 404 497 q 514 375 445 386 z "},"~":{"ha":754,"x_min":14,"x_max":733,"o":"m 733 437 q 522 277 642 277 q 431 296 481 277 l 361 328 q 224 375 279 375 q 138 340 177 375 q 65 252 111 316 l 14 319 q 220 467 97 467 q 383 415 271 467 q 454 390 419 403 q 525 376 496 376 q 667 481 604 376 l 733 437 z "},"":{"ha":833,"x_min":28,"x_max":806,"o":"m 806 40 l 607 40 l 607 358 l 649 358 l 649 77 l 806 77 l 806 40 m 566 40 l 329 40 l 329 358 l 559 358 l 559 320 l 371 320 l 371 223 l 547 223 l 547 186 l 371 186 l 371 77 l 566 77 l 566 40 m 291 201 q 260 90 291 132 q 194 45 236 56 q 142 40 172 40 l 28 40 l 28 358 l 138 358 q 194 353 174 358 q 279 276 254 339 q 291 201 291 243 m 248 201 q 191 314 248 292 q 137 320 174 320 l 70 320 l 70 77 l 138 77 q 216 100 193 77 q 248 201 248 132 z "}," ":{"ha":385,"x_min":0,"x_max":0,"o":""},"¡":{"ha":346,"x_min":81,"x_max":245,"o":"m 245 576 q 221 515 245 541 q 163 490 197 490 q 104 515 128 490 q 81 576 81 541 q 105 634 81 609 q 163 659 129 659 q 221 634 197 659 q 245 576 245 609 m 233 -1 l 87 -1 l 87 464 l 233 464 l 233 -1 z "},"¢":{"ha":833,"x_min":168,"x_max":665,"o":"m 665 161 q 592 141 642 153 l 592 13 l 479 13 l 479 133 q 454 135 468 134 q 245 250 332 149 q 168 462 168 340 q 306 736 168 640 q 479 798 373 783 l 479 912 l 592 912 l 592 790 q 665 769 627 783 l 665 567 q 551 614 609 614 q 443 571 487 614 q 399 463 399 528 q 452 347 399 389 q 551 311 495 311 q 618 326 583 311 q 665 359 642 336 l 665 161 z "},"£":{"ha":576,"x_min":71,"x_max":524,"o":"m 524 482 l 392 482 q 370 524 392 507 q 321 542 347 542 q 235 463 235 542 q 241 414 235 445 q 250 366 249 374 l 350 366 l 350 304 l 260 304 q 269 216 269 251 q 253 136 269 170 l 518 136 l 518 0 l 71 0 l 71 136 q 143 200 143 136 q 123 304 143 244 l 71 304 l 71 366 l 107 366 q 94 453 94 419 q 155 599 94 541 q 321 660 218 660 q 524 482 510 660 z "},"¤":{"ha":926,"x_min":27,"x_max":899,"o":"m 899 191 l 802 94 l 660 236 q 463 174 566 174 q 268 235 368 174 l 125 94 l 28 191 l 171 334 q 111 524 111 422 q 172 715 111 624 l 27 860 l 125 958 l 270 814 q 468 874 363 874 q 654 815 563 874 l 798 957 l 895 859 l 753 718 q 817 524 817 618 q 756 334 817 427 l 899 191 m 661 524 q 603 661 661 606 q 463 717 545 717 q 313 649 373 717 q 266 524 266 595 q 324 387 266 443 q 463 331 382 331 q 614 399 555 331 q 661 524 661 453 z "},"¥":{"ha":833,"x_min":5,"x_max":829,"o":"m 829 926 l 627 603 l 760 603 l 760 457 l 536 457 l 528 444 l 528 372 l 760 372 l 760 226 l 528 226 l 528 0 l 297 0 l 297 226 l 74 226 l 74 372 l 297 372 l 297 444 l 290 457 l 74 457 l 74 603 l 201 603 l 5 926 l 279 926 l 420 660 l 554 926 l 829 926 z "},"¦":{"ha":694,"x_min":215,"x_max":479,"o":"m 479 424 l 215 424 l 215 926 l 479 926 l 479 424 m 479 -231 l 215 -231 l 215 213 l 479 213 l 479 -231 z "},"§":{"ha":498,"x_min":58,"x_max":433,"o":"m 433 92 q 385 -37 433 14 q 249 -90 333 -90 q 61 103 61 -90 l 180 103 q 248 9 180 9 q 321 86 321 9 q 224 178 321 143 q 58 368 58 236 q 134 505 58 457 q 58 652 58 560 q 110 770 58 723 q 245 818 161 818 q 391 754 345 818 q 425 639 425 707 l 315 639 q 250 718 315 718 q 176 652 176 718 q 268 559 176 595 q 374 507 347 529 q 433 375 433 460 q 366 229 433 280 q 433 92 433 181 m 321 370 q 269 435 321 416 l 250 435 q 176 368 176 435 q 197 322 176 343 q 248 293 217 300 q 321 370 321 293 z "},"¨":{"ha":694,"x_min":70,"x_max":625,"o":"m 625 848 q 590 762 625 798 q 505 727 555 727 q 419 762 454 727 q 385 848 385 798 q 419 933 385 898 q 505 968 454 968 q 590 933 555 968 q 625 848 625 898 m 311 848 q 275 762 311 798 q 190 727 240 727 q 105 762 140 727 q 70 848 70 798 q 105 933 70 898 q 190 968 140 968 q 275 933 240 968 q 311 848 311 898 z "},"©":{"ha":1055,"x_min":46,"x_max":1009,"o":"m 1009 463 q 841 95 1009 239 q 531 -21 706 -21 q 163 147 309 -21 q 46 463 46 283 q 163 779 46 645 q 531 947 308 947 q 840 831 706 947 q 1009 463 1009 686 m 912 463 q 820 720 912 611 q 525 859 703 859 q 279 765 387 859 q 143 463 143 647 q 280 161 143 279 q 530 67 388 67 q 778 162 670 67 q 912 463 912 281 m 696 199 l 690 197 q 555 171 602 171 q 324 267 419 171 q 248 460 248 345 q 397 711 248 627 q 553 752 470 752 q 690 724 607 752 l 696 722 l 696 524 l 680 543 q 560 598 631 598 q 459 560 498 598 q 420 460 420 522 q 459 363 420 401 q 558 325 499 325 q 681 378 625 325 l 696 393 l 696 199 z "},"ª":{"ha":504,"x_min":31,"x_max":464,"o":"m 460 546 l 330 546 l 330 587 q 217 534 288 534 q 94 581 148 534 q 31 731 31 637 q 96 882 31 825 q 216 926 147 926 q 330 878 286 926 l 330 914 l 460 914 l 460 546 m 464 393 l 43 393 l 43 477 l 464 477 l 464 393 m 334 730 q 310 790 334 765 q 250 814 286 814 q 191 790 215 814 q 167 730 167 765 q 191 670 167 695 q 250 645 216 645 q 310 670 286 645 q 334 730 334 694 z "},"«":{"ha":737,"x_min":39,"x_max":682,"o":"m 682 103 l 555 14 l 345 317 l 555 618 l 678 534 l 524 317 l 682 103 m 376 103 l 250 14 l 39 317 l 250 618 l 372 534 l 218 317 l 376 103 z "},"¬":{"ha":694,"x_min":46,"x_max":648,"o":"m 648 0 l 389 0 l 389 183 l 46 183 l 46 412 l 648 412 l 648 0 z "},"­":{"ha":833,"x_min":88,"x_max":745,"o":"m 745 236 l 88 236 l 88 419 l 745 419 l 745 236 z "},"®":{"ha":1055,"x_min":46,"x_max":1009,"o":"m 1009 463 q 841 95 1009 239 q 531 -21 706 -21 q 163 147 309 -21 q 46 463 46 283 q 163 779 46 645 q 531 947 308 947 q 840 831 706 947 q 1009 463 1009 686 m 912 463 q 820 720 912 611 q 525 859 703 859 q 279 765 387 859 q 143 463 143 647 q 280 161 143 279 q 530 67 388 67 q 778 162 670 67 q 912 463 912 281 m 789 185 l 578 185 l 450 371 l 450 185 l 283 185 l 283 741 l 524 741 q 681 679 629 741 q 723 564 723 629 q 675 446 723 491 q 606 409 650 422 l 789 185 m 551 557 q 532 597 551 581 q 469 613 513 613 l 450 613 l 450 500 l 469 500 q 546 535 530 500 q 551 557 551 547 z "},"¯":{"ha":694,"x_min":104,"x_max":591,"o":"m 591 750 l 104 750 l 104 886 l 591 886 l 591 750 z "},"°":{"ha":538,"x_min":57,"x_max":482,"o":"m 482 704 q 420 555 482 617 q 269 493 357 493 q 119 555 182 493 q 57 704 57 617 q 119 854 57 791 q 269 917 182 917 q 419 854 357 917 q 482 704 482 791 m 429 704 q 384 815 429 770 q 272 861 338 861 q 161 815 207 861 q 115 704 115 770 q 161 593 115 639 q 272 547 207 547 q 384 593 338 547 q 429 704 429 639 z "},"±":{"ha":847,"x_min":113,"x_max":760,"o":"m 760 261 l 478 261 l 478 56 l 395 56 l 395 261 l 113 261 l 113 345 l 395 345 l 395 639 l 478 639 l 478 345 l 760 345 l 760 261 m 760 -83 l 113 -83 l 113 0 l 760 0 l 760 -83 z "},"²":{"ha":385,"x_min":57,"x_max":343,"o":"m 343 427 l 61 427 l 61 484 l 231 676 q 256 745 256 705 q 239 793 256 773 q 196 812 222 812 q 139 736 139 812 l 57 736 l 57 757 q 98 850 57 813 q 193 885 136 885 q 296 851 256 885 q 342 746 342 814 q 306 648 342 690 l 174 497 l 343 497 l 343 427 z "},"³":{"ha":385,"x_min":41,"x_max":329,"o":"m 329 536 q 290 439 329 477 q 184 400 250 400 q 41 539 41 400 l 41 551 l 119 551 q 189 464 119 464 q 249 545 249 464 q 208 618 249 600 q 142 631 195 624 l 142 685 q 240 758 240 685 q 225 801 240 782 q 186 819 210 819 q 134 755 134 819 l 53 755 l 53 777 q 91 853 53 822 q 191 885 129 885 q 278 857 242 885 q 321 757 321 822 q 260 660 321 684 q 329 536 329 630 z "},"´":{"ha":694,"x_min":245,"x_max":562,"o":"m 562 911 l 348 722 l 245 798 l 420 1013 l 562 911 z "},"µ":{"ha":822,"x_min":76,"x_max":747,"o":"m 747 230 q 583 -3 747 57 q 427 -27 513 -27 q 280 -3 347 -27 l 298 -315 l 76 -315 l 76 629 l 298 629 l 298 270 q 310 208 298 229 q 412 156 338 156 q 496 186 465 156 q 524 273 524 214 l 524 629 l 747 629 l 747 230 z "},"¶":{"ha":833,"x_min":-7,"x_max":777,"o":"m 777 789 l 675 789 l 675 -127 l 524 -127 l 524 789 l 408 789 l 408 -127 l 257 -127 l 257 446 l 243 446 q 140 464 196 444 q 10 587 44 499 q -7 682 -7 631 q 89 877 -7 813 q 313 926 162 926 l 777 926 l 777 789 z "},"·":{"ha":421,"x_min":67,"x_max":354,"o":"m 354 329 q 312 227 354 269 q 210 185 271 185 q 102 235 144 185 q 67 329 67 277 q 101 422 67 382 q 210 472 144 472 q 312 430 270 472 q 354 329 354 389 z "},"¸":{"ha":694,"x_min":195,"x_max":538,"o":"m 538 -177 q 454 -296 538 -256 q 300 -325 390 -325 q 195 -314 267 -325 l 195 -234 q 296 -241 264 -241 q 408 -178 408 -241 q 322 -121 408 -121 q 233 -134 275 -121 l 272 14 l 372 14 l 358 -49 q 478 -75 431 -49 q 538 -177 538 -109 z "},"¹":{"ha":385,"x_min":65,"x_max":243,"o":"m 243 427 l 161 427 l 161 775 q 65 730 103 736 l 65 804 q 171 872 129 823 l 243 872 l 243 427 z "},"º":{"ha":502,"x_min":30,"x_max":473,"o":"m 473 730 q 422 599 473 654 q 251 532 361 532 q 81 599 142 532 q 30 730 30 654 q 81 861 30 805 q 251 928 142 928 q 422 861 360 928 q 473 730 473 806 m 461 393 l 41 393 l 41 477 l 461 477 l 461 393 m 336 730 q 312 791 336 766 q 251 817 287 817 q 191 791 216 817 q 166 730 166 766 q 191 669 166 695 q 251 644 216 644 q 312 669 287 644 q 336 730 336 694 z "},"»":{"ha":737,"x_min":56,"x_max":699,"o":"m 699 317 l 488 14 l 361 103 l 519 317 l 365 534 l 488 618 l 699 317 m 393 317 l 182 14 l 56 103 l 214 317 l 59 534 l 182 618 l 393 317 z "},"¼":{"ha":922,"x_min":49,"x_max":888,"o":"m 888 97 l 823 97 l 823 0 l 742 0 l 742 97 l 568 97 l 568 191 l 710 439 l 823 439 l 823 171 l 888 171 l 888 97 m 693 737 l 294 -17 l 204 -17 l 611 737 l 693 737 m 227 281 l 144 281 l 144 629 q 49 585 86 590 l 49 659 q 154 726 113 677 l 227 726 l 227 281 m 742 171 l 742 349 l 636 171 l 742 171 z "},"½":{"ha":922,"x_min":49,"x_max":875,"o":"m 875 0 l 593 0 l 593 57 l 762 250 q 787 318 787 279 q 770 366 787 347 q 728 386 753 386 q 671 310 671 386 l 589 310 l 589 330 q 629 422 589 387 q 725 458 669 458 q 828 425 787 458 q 873 319 873 387 q 838 222 873 264 l 705 71 l 875 71 l 875 0 m 672 743 l 272 -9 l 184 -9 l 589 743 l 672 743 m 227 281 l 144 281 l 144 629 q 49 585 86 590 l 49 659 q 154 726 113 677 l 227 726 l 227 281 z "},"¾":{"ha":922,"x_min":41,"x_max":888,"o":"m 888 97 l 823 97 l 823 0 l 742 0 l 742 97 l 568 97 l 568 191 l 710 439 l 823 439 l 823 171 l 888 171 l 888 97 m 728 737 l 329 -14 l 240 -14 l 644 737 l 728 737 m 329 390 q 290 293 329 332 q 184 254 250 254 q 41 393 41 254 l 41 406 l 119 406 q 189 318 119 318 q 249 399 249 318 q 208 473 249 454 q 142 485 195 478 l 142 539 q 240 612 240 539 q 225 655 240 636 q 186 673 210 673 q 134 610 134 673 l 53 610 l 53 631 q 91 708 53 676 q 191 739 129 739 q 278 711 242 739 q 321 611 321 676 q 260 514 321 538 q 329 390 329 484 m 742 171 l 742 349 l 636 171 l 742 171 z "},"¿":{"ha":654,"x_min":57,"x_max":532,"o":"m 366 572 q 342 515 366 539 q 285 492 318 492 q 228 515 252 492 q 204 572 204 539 q 228 629 204 606 q 285 652 251 652 q 342 629 318 652 q 366 572 366 606 m 532 187 q 454 46 514 101 q 296 -14 389 -14 q 124 51 191 -14 q 57 215 57 115 q 120 380 57 321 q 216 425 168 425 l 216 461 l 353 461 l 353 296 q 296 311 316 311 q 229 283 256 311 q 201 216 201 256 q 230 149 201 177 q 296 121 258 121 q 358 146 329 121 q 392 205 387 172 l 532 187 z "},"×":{"ha":847,"x_min":140,"x_max":728,"o":"m 728 54 l 682 4 l 436 257 l 191 4 l 140 54 l 386 307 l 140 555 l 191 606 l 436 357 l 682 610 l 728 559 l 486 307 l 728 54 z "},"÷":{"ha":847,"x_min":113,"x_max":760,"o":"m 507 522 q 485 470 507 491 q 432 449 463 449 q 379 470 401 449 q 357 522 357 491 q 379 575 357 553 q 432 597 401 597 q 485 575 463 597 q 507 522 507 553 m 760 261 l 113 261 l 113 345 l 760 345 l 760 261 m 507 82 q 485 30 507 51 q 432 8 463 8 q 379 30 401 8 q 357 82 357 51 q 379 135 357 113 q 432 157 401 157 q 485 135 463 157 q 507 82 507 113 z "},"ƒ":{"ha":833,"x_min":-12,"x_max":808,"o":"m 808 973 l 772 781 q 676 814 719 814 q 589 699 610 814 l 573 616 l 709 616 l 692 526 l 557 526 l 492 166 q 379 -123 457 -28 q 296 -191 341 -168 q 115 -227 224 -227 q -12 -214 59 -227 l 24 -12 q 117 -25 80 -25 q 224 31 191 -25 q 277 223 251 76 l 332 526 l 226 526 l 240 616 l 349 616 l 376 763 q 482 962 402 899 q 651 1016 551 1016 q 779 990 731 1016 q 808 973 790 984 z "},"ְ":{"ha":0,"x_min":0,"x_max":103,"o":"m 103 -149 q 88 -186 103 -171 q 52 -201 73 -201 q 15 -186 30 -201 q 0 -149 0 -171 q 15 -112 0 -127 q 52 -97 31 -97 q 87 -112 72 -97 q 103 -149 103 -127 m 103 -298 q 88 -336 103 -321 q 52 -351 73 -351 q 15 -336 30 -351 q 0 -298 0 -321 q 15 -263 0 -278 q 52 -248 31 -248 q 87 -263 72 -248 q 103 -298 103 -278 z "},"ֱ":{"ha":0,"x_min":0,"x_max":473,"o":"m 473 -149 q 459 -186 473 -171 q 422 -201 444 -201 q 386 -186 401 -201 q 371 -149 371 -171 q 386 -112 371 -127 q 422 -97 401 -97 q 458 -112 443 -97 q 473 -149 473 -127 m 473 -298 q 459 -336 473 -321 q 422 -351 444 -351 q 386 -336 401 -351 q 371 -298 371 -321 q 386 -263 371 -278 q 422 -248 401 -248 q 458 -263 443 -248 q 473 -298 473 -278 m 289 -149 q 274 -186 289 -171 q 237 -201 259 -201 q 201 -186 216 -201 q 186 -149 186 -171 q 201 -112 186 -127 q 237 -97 216 -97 q 274 -112 258 -97 q 289 -149 289 -127 m 103 -149 q 88 -186 103 -171 q 52 -201 73 -201 q 15 -186 30 -201 q 0 -149 0 -171 q 15 -112 0 -127 q 52 -97 31 -97 q 87 -112 72 -97 q 103 -149 103 -127 m 196 -298 q 181 -336 196 -321 q 144 -351 166 -351 q 108 -336 123 -351 q 93 -298 93 -321 q 108 -263 93 -278 q 144 -248 123 -248 q 181 -263 165 -248 q 196 -298 196 -278 z "},"ֲ":{"ha":0,"x_min":0,"x_max":443,"o":"m 443 -149 q 428 -186 443 -171 q 392 -201 414 -201 q 355 -186 370 -201 q 340 -149 340 -171 q 356 -112 340 -127 q 392 -97 371 -97 q 428 -112 412 -97 q 443 -149 443 -127 m 443 -298 q 428 -336 443 -321 q 392 -351 414 -351 q 355 -336 370 -351 q 340 -298 340 -321 q 356 -263 340 -278 q 392 -248 371 -248 q 428 -263 412 -248 q 443 -298 443 -278 m 256 -168 l 0 -168 l 0 -107 l 256 -107 l 256 -168 z "},"ֳ":{"ha":0,"x_min":0,"x_max":443,"o":"m 443 -149 q 428 -186 443 -171 q 392 -201 414 -201 q 355 -186 370 -201 q 340 -149 340 -171 q 356 -112 340 -127 q 392 -97 371 -97 q 428 -112 412 -97 q 443 -149 443 -127 m 443 -298 q 428 -336 443 -321 q 392 -351 414 -351 q 355 -336 370 -351 q 340 -298 340 -321 q 356 -263 340 -278 q 392 -248 371 -248 q 428 -263 412 -248 q 443 -298 443 -278 m 256 -168 l 146 -168 q 157 -239 154 -194 q 160 -311 158 -275 l 104 -311 q 107 -239 106 -275 q 119 -168 110 -195 l 0 -168 l 0 -107 l 256 -107 l 256 -168 z "},"ִ":{"ha":0,"x_min":0,"x_max":103,"o":"m 103 -149 q 88 -186 103 -171 q 52 -201 73 -201 q 15 -186 30 -201 q 0 -149 0 -171 q 15 -112 0 -127 q 52 -97 31 -97 q 87 -112 72 -97 q 103 -149 103 -127 z "},"ֵ":{"ha":0,"x_min":0,"x_max":289,"o":"m 289 -149 q 274 -186 289 -171 q 237 -201 259 -201 q 201 -186 216 -201 q 186 -149 186 -171 q 201 -112 186 -127 q 237 -97 216 -97 q 274 -112 258 -97 q 289 -149 289 -127 m 103 -149 q 88 -186 103 -171 q 52 -201 73 -201 q 15 -186 30 -201 q 0 -149 0 -171 q 15 -112 0 -127 q 52 -97 31 -97 q 87 -112 72 -97 q 103 -149 103 -127 z "},"ֶ":{"ha":0,"x_min":0,"x_max":289,"o":"m 289 -149 q 274 -186 289 -171 q 237 -201 259 -201 q 201 -186 216 -201 q 186 -149 186 -171 q 201 -112 186 -127 q 237 -97 216 -97 q 274 -112 258 -97 q 289 -149 289 -127 m 103 -149 q 88 -186 103 -171 q 52 -201 73 -201 q 15 -186 30 -201 q 0 -149 0 -171 q 15 -112 0 -127 q 52 -97 31 -97 q 87 -112 72 -97 q 103 -149 103 -127 m 196 -298 q 181 -336 196 -321 q 144 -351 166 -351 q 108 -336 123 -351 q 93 -298 93 -321 q 108 -263 93 -278 q 144 -248 123 -248 q 181 -263 165 -248 q 196 -298 196 -278 z "},"ַ":{"ha":0,"x_min":0,"x_max":256,"o":"m 256 -168 l 0 -168 l 0 -107 l 256 -107 l 256 -168 z "},"ָ":{"ha":0,"x_min":0,"x_max":256,"o":"m 256 -168 l 146 -168 q 157 -239 154 -194 q 160 -311 158 -275 l 104 -311 q 107 -239 106 -275 q 119 -168 110 -195 l 0 -168 l 0 -107 l 256 -107 l 256 -168 z "},"ֹ":{"ha":0,"x_min":0,"x_max":103,"o":"m 103 768 q 88 731 103 746 q 52 715 73 715 q 15 731 30 715 q 0 768 0 746 q 15 804 0 789 q 52 819 31 819 q 87 804 72 819 q 103 768 103 789 z "},"ֻ":{"ha":0,"x_min":0,"x_max":378,"o":"m 378 -298 q 363 -336 378 -321 q 326 -351 348 -351 q 290 -336 304 -351 q 275 -298 275 -321 q 291 -263 275 -278 q 326 -248 306 -248 q 362 -263 347 -248 q 378 -298 378 -278 m 240 -224 q 225 -261 240 -245 q 189 -277 211 -277 q 152 -261 167 -277 q 138 -224 138 -245 q 153 -188 138 -203 q 189 -172 168 -172 q 225 -188 210 -172 q 240 -224 240 -203 m 103 -149 q 88 -186 103 -171 q 52 -201 73 -201 q 15 -186 30 -201 q 0 -149 0 -171 q 15 -112 0 -127 q 52 -97 31 -97 q 87 -112 72 -97 q 103 -149 103 -127 z "},"ּ":{"ha":0,"x_min":0,"x_max":103,"o":"m 103 311 q 88 274 103 289 q 52 258 73 258 q 15 274 30 258 q 0 311 0 289 q 15 347 0 332 q 52 363 31 363 q 87 347 72 363 q 103 311 103 332 z "},"ֽ":{"ha":0,"x_min":0,"x_max":62,"o":"m 62 -283 l 0 -283 l 0 -107 l 62 -107 l 62 -283 z "},"־":{"ha":269,"x_min":0,"x_max":269,"o":"m 269 489 l 0 489 l 0 633 l 269 633 l 269 489 z "},"ֿ":{"ha":0,"x_min":84,"x_max":340,"o":"m 340 720 l 84 720 l 84 781 l 340 781 l 340 720 z "},"׀":{"ha":416,"x_min":150,"x_max":264,"o":"m 264 0 l 150 0 l 150 1000 l 264 1000 l 264 0 z "},"ׁ":{"ha":0,"x_min":675,"x_max":778,"o":"m 778 768 q 763 731 778 746 q 726 715 748 715 q 690 731 705 715 q 675 768 675 746 q 690 804 675 789 q 726 819 705 819 q 763 804 747 819 q 778 768 778 789 z "},"ׂ":{"ha":0,"x_min":109,"x_max":211,"o":"m 211 768 q 196 731 211 746 q 160 715 182 715 q 123 731 138 715 q 109 768 109 746 q 124 804 109 789 q 160 819 139 819 q 196 804 180 819 q 211 768 211 789 z "},"׃":{"ha":385,"x_min":49,"x_max":236,"o":"m 236 463 q 209 396 236 424 q 143 368 182 368 q 76 396 104 368 q 49 463 49 424 q 76 531 49 503 q 143 558 103 558 q 209 531 182 558 q 236 463 236 503 m 236 64 q 209 -3 236 24 q 143 -31 182 -31 q 76 -3 104 -31 q 49 64 49 24 q 76 129 49 102 q 143 157 104 157 q 209 129 181 157 q 236 64 236 102 z "},"א":{"ha":730,"x_min":78,"x_max":669,"o":"m 669 0 l 501 0 l 265 361 q 248 348 258 361 q 237 322 237 335 l 250 261 l 304 0 l 78 0 l 78 89 q 93 136 78 136 l 134 136 l 102 273 q 92 334 92 315 q 192 475 92 438 l 90 633 l 229 633 q 262 629 254 633 q 281 606 267 625 l 447 355 q 514 454 514 378 l 514 497 l 453 497 l 453 633 l 611 633 q 656 536 656 615 l 656 463 q 518 239 656 359 l 669 0 z "},"ב":{"ha":615,"x_min":41,"x_max":558,"o":"m 558 0 l 46 0 l 46 136 l 355 136 l 355 497 l 41 497 l 41 633 l 433 633 q 483 611 463 633 q 503 557 503 588 l 503 136 l 558 136 l 558 0 z "},"ג":{"ha":463,"x_min":39,"x_max":404,"o":"m 404 0 l 298 0 l 252 122 l 197 0 l 39 0 l 90 136 l 252 136 l 221 497 l 139 497 l 139 633 l 321 633 q 350 611 348 633 l 404 0 z "},"ד":{"ha":576,"x_min":29,"x_max":532,"o":"m 532 529 q 513 497 532 497 l 481 497 l 481 0 l 334 0 l 334 497 l 29 497 l 29 633 l 505 633 q 532 603 532 633 l 532 529 z "},"ה":{"ha":692,"x_min":78,"x_max":624,"o":"m 624 0 l 476 0 l 476 497 l 78 497 l 78 633 l 558 633 q 615 593 602 633 q 624 497 624 568 l 624 0 m 225 0 l 78 0 l 78 355 l 225 355 l 225 0 z "},"ו":{"ha":346,"x_min":49,"x_max":283,"o":"m 283 0 l 136 0 l 136 497 l 49 497 l 49 633 l 244 633 q 274 612 262 633 q 283 576 283 595 l 283 0 z "},"ז":{"ha":346,"x_min":54,"x_max":314,"o":"m 314 497 l 285 497 l 250 390 l 250 0 l 103 0 l 103 358 l 146 497 l 54 497 l 54 633 l 254 633 q 314 583 314 633 l 314 497 z "},"ח":{"ha":692,"x_min":68,"x_max":624,"o":"m 624 0 l 476 0 l 476 497 l 215 497 l 215 0 l 68 0 l 68 397 l 113 497 l 68 497 l 68 633 l 557 633 q 624 572 624 633 l 624 0 z "},"ט":{"ha":692,"x_min":61,"x_max":627,"o":"m 627 0 l 71 0 l 71 383 l 113 497 l 61 497 l 61 633 l 264 633 q 292 599 292 633 l 292 497 l 257 497 l 218 371 l 218 136 l 479 136 l 479 456 q 418 494 462 487 l 375 371 l 298 371 l 379 640 q 541 596 475 640 q 627 460 614 547 l 627 0 z "},"י":{"ha":346,"x_min":41,"x_max":283,"o":"m 283 335 l 134 335 l 134 497 l 41 497 l 41 633 l 245 633 q 283 587 283 633 l 283 335 z "},"ך":{"ha":576,"x_min":39,"x_max":515,"o":"m 515 -196 l 368 -196 l 368 497 l 39 497 l 39 633 l 450 633 q 507 593 493 633 q 515 497 515 568 l 515 -196 z "},"כ":{"ha":576,"x_min":46,"x_max":515,"o":"m 515 136 q 389 0 500 0 l 54 0 l 54 136 l 307 136 q 368 184 353 136 l 368 497 l 46 497 l 46 633 l 475 633 q 515 591 515 633 l 515 136 z "},"ל":{"ha":576,"x_min":36,"x_max":517,"o":"m 517 220 q 458 76 517 136 q 239 0 382 0 l 184 0 l 184 136 l 239 136 q 370 232 370 136 l 370 497 l 36 497 l 36 765 l 178 765 l 178 633 l 473 633 q 517 582 517 633 l 517 220 z "},"ם":{"ha":692,"x_min":61,"x_max":619,"o":"m 619 0 l 78 0 l 78 400 l 110 497 l 61 497 l 61 633 l 530 633 q 592 610 564 633 q 619 554 619 587 l 619 0 m 472 136 l 472 497 l 225 497 l 225 136 l 472 136 z "},"מ":{"ha":730,"x_min":54,"x_max":665,"o":"m 665 0 l 338 0 l 338 136 l 518 136 l 518 424 q 383 511 497 511 q 295 483 333 511 q 250 396 250 450 l 250 0 l 103 0 l 103 396 q 143 497 103 427 l 54 497 l 54 633 l 197 633 q 239 583 226 615 q 407 646 295 646 q 584 584 513 646 q 665 415 654 522 l 665 0 z "},"ן":{"ha":346,"x_min":58,"x_max":288,"o":"m 288 498 l 250 407 l 250 -196 l 103 -196 l 103 385 l 146 497 l 58 497 l 58 633 l 253 633 q 277 620 266 633 q 288 586 288 606 l 288 498 z "},"נ":{"ha":385,"x_min":58,"x_max":318,"o":"m 318 0 l 58 0 l 58 136 l 171 136 l 171 497 l 78 497 l 78 633 l 285 633 q 318 589 318 633 l 318 0 z "},"ס":{"ha":692,"x_min":58,"x_max":629,"o":"m 629 186 q 517 35 598 87 q 340 -12 444 -12 q 145 60 222 -12 q 69 245 69 132 l 69 385 l 110 497 l 58 497 l 58 633 l 571 633 q 629 574 629 633 l 629 186 m 482 225 l 482 497 l 214 497 l 214 222 q 350 125 243 125 q 442 157 406 125 q 482 225 474 184 z "},"ע":{"ha":654,"x_min":35,"x_max":604,"o":"m 604 160 q 561 49 604 98 q 461 0 517 0 l 35 0 l 35 136 l 132 136 l 132 497 l 54 497 l 54 633 l 250 633 q 279 595 279 633 l 279 136 l 424 136 q 457 172 457 136 l 457 497 l 375 497 l 375 633 l 568 633 q 604 591 604 633 l 604 160 z "},"ף":{"ha":692,"x_min":68,"x_max":636,"o":"m 636 -196 l 489 -196 l 489 497 l 229 497 l 220 393 l 343 393 l 343 261 l 87 261 q 87 390 86 301 q 122 497 87 428 l 68 497 l 68 633 l 596 633 q 636 597 636 633 l 636 -196 z "},"פ":{"ha":692,"x_min":74,"x_max":627,"o":"m 627 127 q 582 36 627 72 q 460 0 536 0 l 75 0 l 75 136 l 427 136 q 479 187 479 136 l 479 497 l 220 497 l 220 393 l 304 393 l 304 261 l 87 261 l 87 390 l 129 497 l 74 497 l 74 633 l 581 633 q 627 595 627 633 l 627 127 z "},"ץ":{"ha":692,"x_min":58,"x_max":635,"o":"m 635 475 q 340 205 635 205 l 293 205 l 293 -196 l 143 -196 l 143 497 l 58 497 l 58 633 l 250 633 q 290 582 290 633 l 290 336 l 323 336 q 488 472 488 336 l 488 497 l 403 497 l 403 633 l 595 633 q 635 582 635 633 l 635 475 z "},"צ":{"ha":692,"x_min":64,"x_max":625,"o":"m 625 0 l 71 0 l 71 136 l 427 136 l 134 404 l 134 497 l 64 497 l 64 633 l 240 633 q 272 595 272 633 l 272 458 l 399 342 q 462 385 437 347 q 485 458 485 418 l 485 497 l 408 497 l 408 633 l 593 633 q 625 595 625 633 l 625 446 q 501 249 625 308 l 625 136 l 625 0 z "},"ק":{"ha":692,"x_min":71,"x_max":623,"o":"m 623 225 q 537 44 623 102 q 374 0 472 0 l 339 0 l 339 136 l 368 136 q 451 168 422 136 q 475 229 475 193 l 475 497 l 71 497 l 71 633 l 578 633 q 610 618 597 633 q 623 582 623 602 l 623 225 m 228 -196 l 81 -196 l 81 358 l 228 358 l 228 -196 z "},"ר":{"ha":576,"x_min":39,"x_max":515,"o":"m 515 0 l 368 0 l 368 497 l 39 497 l 39 633 l 450 633 q 507 593 493 633 q 515 497 515 568 l 515 0 z "},"ש":{"ha":922,"x_min":41,"x_max":848,"o":"m 848 122 q 789 31 833 64 q 700 0 749 0 l 77 0 l 77 395 l 107 497 l 41 497 l 41 633 l 236 633 q 260 576 260 620 q 260 497 258 518 l 224 497 l 224 136 l 392 136 l 392 497 l 319 497 l 319 633 l 515 633 q 539 576 539 620 l 539 136 l 665 136 q 701 175 701 136 l 701 497 l 621 497 l 621 633 l 825 633 q 848 576 848 620 l 848 122 z "},"ת":{"ha":730,"x_min":57,"x_max":668,"o":"m 668 0 l 521 0 l 521 497 l 269 497 l 269 0 l 57 0 l 57 136 l 122 136 l 122 379 l 171 497 l 113 497 l 113 633 l 602 633 q 668 549 668 633 l 668 0 z "},"װ":{"ha":651,"x_min":49,"x_max":589,"o":"m 589 0 l 441 0 l 441 497 l 354 497 l 354 633 l 550 633 q 579 612 568 633 q 589 576 589 595 l 589 0 m 283 0 l 136 0 l 136 497 l 49 497 l 49 633 l 244 633 q 274 612 262 633 q 283 576 283 595 l 283 0 z "},"ױ":{"ha":651,"x_min":41,"x_max":589,"o":"m 589 0 l 441 0 l 441 497 l 354 497 l 354 633 l 550 633 q 579 612 568 633 q 589 576 589 595 l 589 0 m 283 335 l 134 335 l 134 497 l 41 497 l 41 633 l 245 633 q 283 587 283 633 l 283 335 z "},"ײ":{"ha":651,"x_min":42,"x_max":590,"o":"m 590 335 l 440 335 l 440 497 l 349 497 l 349 633 l 553 633 q 590 587 590 633 l 590 335 m 283 335 l 134 335 l 134 497 l 42 497 l 42 633 l 246 633 q 283 587 283 633 l 283 335 z "},"׳":{"ha":307,"x_min":41,"x_max":250,"o":"m 250 721 l 142 475 l 41 475 l 110 721 l 250 721 z "},"״":{"ha":538,"x_min":52,"x_max":489,"o":"m 489 724 l 382 472 l 278 472 l 349 724 l 489 724 m 262 724 l 153 472 l 52 472 l 119 724 l 262 724 z "},"‎":{"ha":564,"x_min":77,"x_max":521,"o":"m 521 623 l 293 411 l 293 561 l 196 561 l 196 0 l 77 0 l 77 681 l 293 681 l 293 833 l 521 623 z "},"‏":{"ha":564,"x_min":43,"x_max":488,"o":"m 488 0 l 368 0 l 368 561 l 271 561 l 271 411 l 43 623 l 271 833 l 271 681 l 488 681 l 488 0 z "},"–":{"ha":833,"x_min":88,"x_max":745,"o":"m 745 236 l 88 236 l 88 419 l 745 419 l 745 236 z "},"—":{"ha":1065,"x_min":0,"x_max":1065,"o":"m 1065 236 l 0 236 l 0 419 l 1065 419 l 1065 236 z "},"‘":{"ha":479,"x_min":65,"x_max":433,"o":"m 433 926 l 275 519 l 65 519 l 291 926 l 433 926 z "},"’":{"ha":479,"x_min":46,"x_max":414,"o":"m 414 926 l 189 519 l 46 519 l 205 926 l 414 926 z "},"‚":{"ha":479,"x_min":46,"x_max":414,"o":"m 414 235 l 189 -172 l 46 -172 l 205 235 l 414 235 z "},"“":{"ha":794,"x_min":65,"x_max":749,"o":"m 749 926 l 589 519 l 380 519 l 606 926 l 749 926 m 433 926 l 275 519 l 65 519 l 291 926 l 433 926 z "},"”":{"ha":794,"x_min":46,"x_max":730,"o":"m 730 926 l 503 519 l 361 519 l 520 926 l 730 926 m 414 926 l 189 519 l 46 519 l 205 926 l 414 926 z "},"„":{"ha":794,"x_min":46,"x_max":730,"o":"m 730 235 l 503 -172 l 361 -172 l 520 235 l 730 235 m 414 235 l 189 -172 l 46 -172 l 205 235 l 414 235 z "},"†":{"ha":833,"x_min":98,"x_max":736,"o":"m 736 636 l 517 636 l 517 -213 l 314 -213 l 314 636 l 98 636 l 98 812 l 314 812 l 314 1019 l 517 1019 l 517 812 l 736 812 l 736 636 z "},"‡":{"ha":833,"x_min":98,"x_max":735,"o":"m 735 157 l 519 157 l 519 -213 l 316 -213 l 316 157 l 98 157 l 98 333 l 316 333 l 316 661 l 98 661 l 98 837 l 316 837 l 316 1019 l 519 1019 l 519 837 l 735 837 l 735 661 l 519 661 l 519 333 l 735 333 l 735 157 z "},"•":{"ha":926,"x_min":272,"x_max":657,"o":"m 657 471 q 590 324 657 382 q 466 278 536 278 q 319 345 376 278 q 272 471 272 399 q 319 597 272 543 q 466 663 376 663 q 589 617 535 663 q 657 471 657 559 z "},"…":{"ha":1264,"x_min":67,"x_max":1197,"o":"m 1197 118 q 1155 16 1197 58 q 1053 -26 1114 -26 q 944 25 987 -26 q 909 118 909 66 q 943 212 909 172 q 1053 262 986 262 q 1155 220 1114 262 q 1197 118 1197 178 m 776 118 q 734 16 776 58 q 632 -26 692 -26 q 523 25 566 -26 q 488 118 488 66 q 523 212 488 171 q 632 262 566 262 q 734 220 692 262 q 776 118 776 178 m 355 118 q 313 16 355 58 q 211 -26 271 -26 q 102 25 144 -26 q 67 118 67 66 q 102 212 67 171 q 211 262 144 262 q 313 220 271 262 q 355 118 355 178 z "},"‰":{"ha":1839,"x_min":46,"x_max":1792,"o":"m 1792 216 q 1729 60 1792 128 q 1538 -11 1663 -11 q 1345 61 1413 -11 q 1286 217 1286 123 q 1362 387 1286 326 q 1545 443 1433 443 q 1720 383 1651 443 q 1792 216 1792 320 m 1197 216 q 1134 60 1197 128 q 943 -11 1067 -11 q 749 61 818 -11 q 690 217 690 123 q 767 387 690 326 q 949 443 838 443 q 1124 383 1056 443 q 1197 216 1197 320 m 950 926 l 412 0 l 292 0 l 829 926 l 950 926 m 553 709 q 490 553 553 621 q 298 482 424 482 q 105 553 174 482 q 46 710 46 614 q 123 880 46 819 q 305 936 193 936 q 480 876 412 936 q 553 709 553 813 m 1645 216 q 1614 292 1645 260 q 1539 323 1583 323 q 1464 292 1495 323 q 1434 216 1434 260 q 1464 141 1434 172 q 1539 109 1495 109 q 1614 140 1584 109 q 1645 216 1645 172 m 1049 216 q 1019 292 1049 260 q 944 323 988 323 q 869 292 900 323 q 838 216 838 260 q 869 140 838 172 q 944 109 900 109 q 1019 140 988 109 q 1049 216 1049 172 m 405 709 q 374 785 405 753 q 300 816 344 816 q 224 785 255 816 q 194 709 194 753 q 225 633 194 665 q 300 602 256 602 q 374 633 344 602 q 405 709 405 665 z "},"‹":{"ha":432,"x_min":39,"x_max":376,"o":"m 376 103 l 250 14 l 39 317 l 250 618 l 372 534 l 218 317 l 376 103 z "},"›":{"ha":432,"x_min":56,"x_max":393,"o":"m 393 317 l 182 14 l 56 103 l 214 317 l 59 534 l 182 618 l 393 317 z "},"₪":{"ha":1011,"x_min":69,"x_max":942,"o":"m 942 132 q 912 28 942 57 q 811 0 883 0 l 323 0 l 323 414 l 416 414 l 416 93 l 787 93 q 848 144 848 93 l 848 646 l 942 646 l 942 132 m 688 229 l 595 229 l 595 501 q 533 553 595 553 l 163 553 l 163 0 l 69 0 l 69 646 l 557 646 q 658 617 629 646 q 688 514 688 589 l 688 229 z "},"™":{"ha":1078,"x_min":1,"x_max":1052,"o":"m 1052 398 l 908 398 l 872 684 l 753 398 l 691 398 l 578 684 l 536 398 l 393 398 l 481 926 l 623 926 l 724 655 l 831 926 l 974 926 l 1052 398 m 366 808 l 252 808 l 252 398 l 111 398 l 111 808 l 1 808 l 1 926 l 366 926 l 366 808 z "},"ﬠ":{"ha":654,"x_min":35,"x_max":604,"o":"m 604 160 q 561 49 604 98 q 461 0 517 0 l 35 0 l 35 136 l 132 136 l 132 497 l 54 497 l 54 633 l 250 633 q 279 595 279 633 l 279 136 l 424 136 q 457 172 457 136 l 457 497 l 375 497 l 375 633 l 568 633 q 604 591 604 633 l 604 160 z "},"אַ":{"ha":730,"x_min":78,"x_max":669,"o":"m 669 0 l 501 0 l 265 361 q 248 348 258 361 q 237 322 237 335 l 250 261 l 304 0 l 78 0 l 78 89 q 93 136 78 136 l 134 136 l 102 273 q 92 334 92 315 q 192 475 92 438 l 90 633 l 229 633 q 262 629 254 633 q 281 606 267 625 l 447 355 q 514 454 514 378 l 514 497 l 453 497 l 453 633 l 611 633 q 656 536 656 615 l 656 463 q 518 239 656 359 l 669 0 m 500 -168 l 244 -168 l 244 -107 l 500 -107 l 500 -168 z "},"אָ":{"ha":730,"x_min":78,"x_max":669,"o":"m 669 0 l 501 0 l 265 361 q 248 348 258 361 q 237 322 237 335 l 250 261 l 304 0 l 78 0 l 78 89 q 93 136 78 136 l 134 136 l 102 273 q 92 334 92 315 q 192 475 92 438 l 90 633 l 229 633 q 262 629 254 633 q 281 606 267 625 l 447 355 q 514 454 514 378 l 514 497 l 453 497 l 453 633 l 611 633 q 656 536 656 615 l 656 463 q 518 239 656 359 l 669 0 m 500 -168 l 390 -168 q 401 -239 398 -194 q 404 -311 402 -275 l 349 -311 q 351 -239 350 -275 q 363 -168 354 -195 l 244 -168 l 244 -107 l 500 -107 l 500 -168 z "},"אּ":{"ha":730,"x_min":78,"x_max":669,"o":"m 669 0 l 501 0 l 265 361 q 248 348 258 361 q 237 322 237 335 l 250 261 l 304 0 l 78 0 l 78 89 q 93 136 78 136 l 134 136 l 102 273 q 92 334 92 315 q 192 475 92 438 l 90 633 l 229 633 q 262 629 254 633 q 281 606 267 625 l 447 355 q 514 454 514 378 l 514 497 l 453 497 l 453 633 l 611 633 q 656 536 656 615 l 656 463 q 518 239 656 359 l 669 0 m 422 62 q 407 24 422 39 q 370 9 392 9 q 334 24 349 9 q 319 62 319 39 q 334 98 319 83 q 370 113 349 113 q 406 98 391 113 q 422 62 422 83 z "},"ףּ":{"ha":692,"x_min":68,"x_max":636,"o":"m 636 -196 l 489 -196 l 489 497 l 229 497 l 220 393 l 302 393 l 302 261 l 87 261 q 87 390 86 301 q 122 497 87 428 l 68 497 l 68 633 l 596 633 q 636 597 636 633 l 636 -196 m 439 328 q 390 278 439 278 q 342 328 342 278 q 356 362 342 348 q 390 376 370 376 q 425 362 410 376 q 439 328 439 348 z "},"וֹ":{"ha":346,"x_min":49,"x_max":283,"o":"m 283 0 l 136 0 l 136 497 l 49 497 l 49 633 l 244 633 q 274 612 262 633 q 283 576 283 595 l 283 0 m 214 771 q 165 721 214 721 q 117 771 117 721 q 131 805 117 791 q 165 819 146 819 q 199 805 185 819 q 214 771 214 791 z "},"בֿ":{"ha":615,"x_min":41,"x_max":558,"o":"m 558 0 l 46 0 l 46 136 l 355 136 l 355 497 l 41 497 l 41 633 l 433 633 q 483 611 463 633 q 503 557 503 588 l 503 136 l 558 136 l 558 0 m 389 720 l 133 720 l 133 781 l 389 781 l 389 720 z "},"כֿ":{"ha":576,"x_min":46,"x_max":515,"o":"m 515 136 q 389 0 500 0 l 54 0 l 54 136 l 307 136 q 368 184 353 136 l 368 497 l 46 497 l 46 633 l 475 633 q 515 591 515 633 l 515 136 m 389 720 l 133 720 l 133 781 l 389 781 l 389 720 z "},"פֿ":{"ha":692,"x_min":74,"x_max":627,"o":"m 627 127 q 582 36 627 72 q 460 0 536 0 l 75 0 l 75 136 l 427 136 q 479 187 479 136 l 479 497 l 220 497 l 220 393 l 304 393 l 304 261 l 87 261 l 87 390 l 129 497 l 74 497 l 74 633 l 581 633 q 627 595 627 633 l 627 127 m 486 720 l 230 720 l 230 781 l 486 781 l 486 720 z "},"ﭏ":{"ha":730,"x_min":43,"x_max":669,"o":"m 669 0 l 501 0 l 265 361 q 248 348 258 361 q 237 322 237 335 l 250 261 l 304 0 l 78 0 l 78 89 q 93 136 78 136 l 134 136 l 102 273 q 92 334 92 315 q 192 475 92 438 l 178 497 l 43 497 l 43 765 l 184 765 l 184 633 l 229 633 q 262 629 254 633 q 281 606 267 625 l 447 355 q 514 454 514 378 l 514 497 l 453 497 l 453 633 l 611 633 q 656 536 656 615 l 656 463 q 518 239 656 359 l 669 0 z "},"שׁ":{"ha":922,"x_min":41,"x_max":848,"o":"m 848 122 q 789 31 833 64 q 700 0 749 0 l 77 0 l 77 395 l 107 497 l 41 497 l 41 633 l 236 633 q 260 576 260 620 q 260 497 258 518 l 224 497 l 224 136 l 392 136 l 392 497 l 319 497 l 319 633 l 515 633 q 539 576 539 620 l 539 136 l 665 136 q 701 175 701 136 l 701 497 l 621 497 l 621 633 l 825 633 q 848 576 848 620 l 848 122 m 777 771 q 728 721 777 721 q 679 771 679 721 q 693 805 679 791 q 728 819 708 819 q 762 805 747 819 q 777 771 777 791 z "},"שׂ":{"ha":922,"x_min":41,"x_max":848,"o":"m 848 122 q 789 31 833 64 q 700 0 749 0 l 77 0 l 77 395 l 107 497 l 41 497 l 41 633 l 236 633 q 260 576 260 620 q 260 497 258 518 l 224 497 l 224 136 l 392 136 l 392 497 l 319 497 l 319 633 l 515 633 q 539 576 539 620 l 539 136 l 665 136 q 701 175 701 136 l 701 497 l 621 497 l 621 633 l 825 633 q 848 576 848 620 l 848 122 m 192 771 q 143 721 192 721 q 94 771 94 721 q 109 805 94 791 q 143 819 123 819 q 177 805 163 819 q 192 771 192 791 z "},"שּׁ":{"ha":922,"x_min":41,"x_max":848,"o":"m 848 122 q 789 31 833 64 q 700 0 749 0 l 77 0 l 77 395 l 107 497 l 41 497 l 41 633 l 236 633 q 260 576 260 620 q 260 497 258 518 l 224 497 l 224 136 l 392 136 l 392 497 l 319 497 l 319 633 l 515 633 q 539 576 539 620 l 539 136 l 665 136 q 701 175 701 136 l 701 497 l 621 497 l 621 633 l 825 633 q 848 576 848 620 l 848 122 m 777 771 q 728 721 777 721 q 679 771 679 721 q 693 805 679 791 q 728 819 708 819 q 762 805 747 819 q 777 771 777 791 m 669 317 q 624 269 669 269 q 578 317 578 269 q 591 349 578 336 q 624 363 605 363 q 656 349 642 363 q 669 317 669 336 z "},"שּׂ":{"ha":922,"x_min":41,"x_max":848,"o":"m 848 122 q 789 31 833 64 q 700 0 749 0 l 77 0 l 77 395 l 107 497 l 41 497 l 41 633 l 236 633 q 260 576 260 620 q 260 497 258 518 l 224 497 l 224 136 l 392 136 l 392 497 l 319 497 l 319 633 l 515 633 q 539 576 539 620 l 539 136 l 665 136 q 701 175 701 136 l 701 497 l 621 497 l 621 633 l 825 633 q 848 576 848 620 l 848 122 m 669 317 q 624 269 669 269 q 578 317 578 269 q 591 349 578 336 q 624 363 605 363 q 656 349 642 363 q 669 317 669 336 m 192 771 q 143 721 192 721 q 94 771 94 721 q 109 805 94 791 q 143 819 123 819 q 177 805 163 819 q 192 771 192 791 z "},"בּ":{"ha":615,"x_min":41,"x_max":558,"o":"m 558 0 l 46 0 l 46 136 l 355 136 l 355 497 l 41 497 l 41 633 l 433 633 q 483 611 463 633 q 503 557 503 588 l 503 136 l 558 136 l 558 0 m 245 314 q 197 264 245 264 q 149 314 149 264 q 163 348 149 334 q 197 363 178 363 q 231 348 217 363 q 245 314 245 334 z "},"גּ":{"ha":463,"x_min":39,"x_max":404,"o":"m 404 0 l 298 0 l 252 122 l 197 0 l 39 0 l 90 136 l 252 136 l 221 497 l 139 497 l 139 633 l 321 633 q 350 611 348 633 l 404 0 m 197 314 q 149 264 197 264 q 100 314 100 264 q 114 348 100 334 q 149 363 129 363 q 183 348 168 363 q 197 314 197 334 z "},"דּ":{"ha":576,"x_min":29,"x_max":532,"o":"m 532 529 q 513 497 532 497 l 481 497 l 481 0 l 334 0 l 334 497 l 29 497 l 29 633 l 505 633 q 532 603 532 633 l 532 529 m 225 314 q 176 264 225 264 q 127 314 127 264 q 142 348 127 334 q 176 363 157 363 q 211 348 196 363 q 225 314 225 334 z "},"הּ":{"ha":692,"x_min":78,"x_max":624,"o":"m 624 0 l 476 0 l 476 497 l 78 497 l 78 633 l 558 633 q 615 593 602 633 q 624 497 624 568 l 624 0 m 225 0 l 78 0 l 78 355 l 225 355 l 225 0 m 396 314 q 347 264 396 264 q 298 314 298 264 q 313 348 298 334 q 347 363 328 363 q 381 348 367 363 q 396 314 396 334 z "},"וּ":{"ha":346,"x_min":0,"x_max":283,"o":"m 283 0 l 136 0 l 136 497 l 49 497 l 49 633 l 244 633 q 274 612 262 633 q 283 576 283 595 l 283 0 m 97 314 q 49 264 97 264 q 0 314 0 264 q 14 348 0 334 q 49 363 28 363 q 83 348 68 363 q 97 314 97 334 z "},"זּ":{"ha":385,"x_min":7,"x_max":353,"o":"m 353 497 l 323 497 l 289 390 l 289 0 l 142 0 l 142 358 l 184 497 l 93 497 l 93 633 l 293 633 q 353 583 353 633 l 353 497 m 104 314 q 56 264 104 264 q 7 314 7 264 q 21 348 7 334 q 56 363 36 363 q 90 348 75 363 q 104 314 104 334 z "},"טּ":{"ha":692,"x_min":61,"x_max":627,"o":"m 627 0 l 71 0 l 71 383 l 113 497 l 61 497 l 61 633 l 264 633 q 292 599 292 633 l 292 497 l 257 497 l 218 371 l 218 136 l 479 136 l 479 456 q 418 494 462 487 l 375 371 l 298 371 l 379 640 q 541 596 475 640 q 627 460 614 547 l 627 0 m 396 286 q 347 236 396 236 q 298 286 298 236 q 313 320 298 306 q 347 335 328 335 q 381 320 367 335 q 396 286 396 306 z "},"יּ":{"ha":346,"x_min":7,"x_max":283,"o":"m 283 335 l 134 335 l 134 497 l 41 497 l 41 633 l 245 633 q 283 587 283 633 l 283 335 m 104 314 q 56 264 104 264 q 7 314 7 264 q 21 348 7 334 q 56 363 36 363 q 90 348 75 363 q 104 314 104 334 z "},"ךּ":{"ha":576,"x_min":39,"x_max":515,"o":"m 515 -196 l 368 -196 l 368 497 l 39 497 l 39 633 l 450 633 q 507 593 493 633 q 515 497 515 568 l 515 -196 m 245 314 q 197 264 245 264 q 149 314 149 264 q 163 348 149 334 q 197 363 178 363 q 231 348 217 363 q 245 314 245 334 z "},"כּ":{"ha":576,"x_min":46,"x_max":515,"o":"m 515 136 q 466 36 509 76 q 389 0 428 0 l 54 0 l 54 136 l 307 136 q 368 184 353 136 l 368 497 l 46 497 l 46 633 l 475 633 q 515 591 515 633 l 515 136 m 245 314 q 197 264 245 264 q 149 314 149 264 q 163 348 149 334 q 197 363 178 363 q 231 348 217 363 q 245 314 245 334 z "},"לּ":{"ha":576,"x_min":36,"x_max":517,"o":"m 517 220 q 458 76 517 136 q 239 0 382 0 l 184 0 l 184 136 l 239 136 q 370 232 370 136 l 370 497 l 36 497 l 36 765 l 178 765 l 178 633 l 473 633 q 517 582 517 633 l 517 220 m 254 314 q 205 264 254 264 q 157 314 157 264 q 171 348 157 334 q 205 363 186 363 q 240 348 225 363 q 254 314 254 334 z "},"מּ":{"ha":730,"x_min":54,"x_max":665,"o":"m 665 0 l 338 0 l 338 136 l 518 136 l 518 424 q 383 511 497 511 q 295 483 333 511 q 250 396 250 450 l 250 0 l 103 0 l 103 396 q 143 497 103 427 l 54 497 l 54 633 l 197 633 q 239 583 226 615 q 407 646 295 646 q 584 584 513 646 q 665 415 654 522 l 665 0 m 429 314 q 380 264 429 264 q 332 314 332 264 q 346 348 332 334 q 380 363 361 363 q 415 348 400 363 q 429 314 429 334 z "},"נּ":{"ha":385,"x_min":28,"x_max":318,"o":"m 318 0 l 58 0 l 58 136 l 171 136 l 171 497 l 78 497 l 78 633 l 285 633 q 318 589 318 633 l 318 0 m 125 314 q 77 264 125 264 q 28 314 28 264 q 42 348 28 334 q 77 363 56 363 q 111 348 96 363 q 125 314 125 334 z "},"סּ":{"ha":692,"x_min":58,"x_max":629,"o":"m 629 186 q 517 35 598 87 q 340 -12 444 -12 q 145 60 222 -12 q 69 245 69 132 l 69 385 l 110 497 l 58 497 l 58 633 l 571 633 q 629 574 629 633 l 629 186 m 482 225 l 482 497 l 214 497 l 214 222 q 350 125 243 125 q 442 157 406 125 q 482 225 474 184 m 396 314 q 347 264 396 264 q 298 314 298 264 q 313 348 298 334 q 347 363 328 363 q 381 348 367 363 q 396 314 396 334 z "},"פּ":{"ha":692,"x_min":74,"x_max":627,"o":"m 627 127 q 582 36 627 72 q 460 0 536 0 l 75 0 l 75 136 l 427 136 q 479 187 479 136 l 479 497 l 220 497 l 220 393 l 304 393 l 304 261 l 87 261 l 87 390 l 129 497 l 74 497 l 74 633 l 581 633 q 627 595 627 633 l 627 127 m 439 328 q 390 278 439 278 q 342 328 342 278 q 356 362 342 348 q 390 376 370 376 q 425 362 410 376 q 439 328 439 348 z "},"צּ":{"ha":692,"x_min":64,"x_max":625,"o":"m 625 0 l 71 0 l 71 136 l 427 136 l 134 404 l 134 497 l 64 497 l 64 633 l 240 633 q 272 595 272 633 l 272 458 l 399 342 q 462 385 437 347 q 485 458 485 418 l 485 497 l 408 497 l 408 633 l 593 633 q 625 595 625 633 l 625 446 q 501 249 625 308 l 625 136 l 625 0 m 161 286 q 113 236 161 236 q 64 286 64 236 q 78 320 64 306 q 113 335 93 335 q 147 320 132 335 q 161 286 161 306 z "},"קּ":{"ha":692,"x_min":71,"x_max":623,"o":"m 623 225 q 537 44 623 102 q 374 0 472 0 l 339 0 l 339 136 l 368 136 q 451 168 422 136 q 475 229 475 193 l 475 497 l 71 497 l 71 633 l 578 633 q 610 618 597 633 q 623 582 623 602 l 623 225 m 228 -196 l 81 -196 l 81 358 l 228 358 l 228 -196 m 396 314 q 347 264 396 264 q 298 314 298 264 q 313 348 298 334 q 347 363 328 363 q 381 348 367 363 q 396 314 396 334 z "},"רּ":{"ha":576,"x_min":39,"x_max":515,"o":"m 515 0 l 368 0 l 368 497 l 39 497 l 39 633 l 450 633 q 507 593 493 633 q 515 497 515 568 l 515 0 m 257 314 q 208 264 257 264 q 160 314 160 264 q 174 348 160 334 q 208 363 189 363 q 243 348 229 363 q 257 314 257 334 z "},"שּ":{"ha":922,"x_min":41,"x_max":848,"o":"m 848 122 q 789 31 833 64 q 700 0 749 0 l 77 0 l 77 395 l 107 497 l 41 497 l 41 633 l 236 633 q 260 576 260 620 q 260 497 258 518 l 224 497 l 224 136 l 392 136 l 392 497 l 319 497 l 319 633 l 515 633 q 539 576 539 620 l 539 136 l 665 136 q 701 175 701 136 l 701 497 l 621 497 l 621 633 l 825 633 q 848 576 848 620 l 848 122 m 669 317 q 624 269 669 269 q 578 317 578 269 q 591 349 578 336 q 624 363 605 363 q 656 349 642 363 q 669 317 669 336 z "},"תּ":{"ha":730,"x_min":57,"x_max":668,"o":"m 668 0 l 521 0 l 521 497 l 269 497 l 269 0 l 57 0 l 57 136 l 122 136 l 122 379 l 171 497 l 113 497 l 113 633 l 602 633 q 668 549 668 633 l 668 0 m 443 314 q 395 264 443 264 q 346 314 346 264 q 360 348 346 334 q 395 363 374 363 q 429 348 414 363 q 443 314 443 334 z "}}}
